<svg xmlns="http://www.w3.org/2000/svg" version="1.1" xmlns:xlink="http://www.w3.org/1999/xlink" xmlns:svgjs="http://svgjs.dev/svgjs" width="1000" height="1000" viewBox="0 0 1000 1000"><rect width="1000" height="1000" fill="#ffffff"></rect><g transform="matrix(0.7,0,0,0.7,149.57575916045823,386.6819950531305)"><svg viewBox="0 0 396 129" data-background-color="#ffffff" preserveAspectRatio="xMidYMid meet" height="325" width="1000" xmlns="http://www.w3.org/2000/svg" xmlns:xlink="http://www.w3.org/1999/xlink"><g id="tight-bounds" transform="matrix(1,0,0,1,0.24000089648788503,-0.2449554367201472)"><svg viewBox="0 0 395.5199999999999 129.4899108734403" height="129.4899108734403" width="395.5199999999999"><g><svg viewBox="0 0 395.5199999999999 129.4899108734403" height="129.4899108734403" width="395.5199999999999"><g><svg viewBox="0 0 395.5199999999999 129.4899108734403" height="129.4899108734403" width="395.5199999999999"><g><svg viewBox="0 0 395.5199999999999 129.4899108734403" height="129.4899108734403" width="395.5199999999999"><g><svg viewBox="0 0 395.5199999999999 129.4899108734403" height="129.4899108734403" width="395.5199999999999"><g transform="matrix(1,0,0,1,0,0)"><svg width="395.5199999999999" viewBox="-11.899999618530273 -26.950000762939453 84.1500015258789 27.55000114440918" height="129.4899108734403" data-palette-color="#d98173"><path d="M9-0.15L-11.9-2.4 9.7-2.4 9-0.15ZM-8.05-21.65L13.5-21.65Q13.2-20.85 12.85-19.4L12.85-19.4-8.05-21.65ZM12.25-15L12.25-15 12.25-14.6-8.95-16.85 12.35-16.85Q12.25-15.65 12.25-15ZM11.3-7.25L10.6-5.05-10.25-7.25 11.3-7.25ZM-4.6-26.45L16.95-26.45Q15.6-25.45 14.9-24.35L14.9-24.35-4.6-26.45ZM-7-12.05L12.7-12.05Q13.15-10.75 14.15-9.8L14.15-9.8-7-12.05ZM35.05-25.9L32.65-18.6Q29.25-19.4 26.85-19.4 24.45-19.4 23.3-19.25L23.3-19.25 23.05-17.8 25.55-17.5Q33.6-16.45 33.6-10.85L33.6-10.85Q33.6-10.2 33.3-8.43 33-6.65 32.3-5 31.6-3.35 30.53-2.33 29.45-1.3 28.43-0.68 27.4-0.05 25.8 0.2L25.8 0.2Q23.3 0.6 19.13 0.6 14.95 0.6 10.7-0.55L10.7-0.55 13.15-7.95Q17.05-6.85 19.98-6.85 22.9-6.85 24.1-7L24.1-7 24.35-8.6 21.2-8.95Q17.15-9.4 15.45-10.85 13.75-12.3 13.75-15L13.75-15Q13.75-16 14-17.5L14-17.5Q15-22.85 17.6-24.9 20.2-26.95 25.53-26.95 30.85-26.95 35.05-25.9L35.05-25.9ZM67.8 0L58.65 0 56.3-8.65 56-8.65 54.5 0 46.1 0 50.7-26.45 59.15-26.45 57.7-18.35 57.95-18.35 63.1-26.45 72.25-26.45 63.85-13.5 67.8 0ZM44.85-2.4L44.45-0.15 23.25-2.4 44.85-2.4ZM46.55-12.05L46.15-9.8 24.95-12.05 46.55-12.05ZM47.4-16.85L47-14.6 25.8-16.85 47.4-16.85ZM48.25-21.65L47.85-19.4 26.65-21.65 48.25-21.65ZM49.05-26.45L48.7-24.2 27.5-26.45 49.05-26.45ZM45.7-7.25L45.3-5 24.1-7.25 45.7-7.25Z" opacity="1" transform="matrix(1,0,0,1,0,0)" fill="#d98173" class="undefined-text-0" data-fill-palette-color="primary" id="text-0"></path></svg></g></svg></g></svg></g></svg></g><g></g></svg></g><defs></defs></svg><rect width="395.5199999999999" height="129.4899108734403" fill="none" stroke="none" visibility="hidden"></rect></g></svg></g></svg>